# xmcd
#
# Track frame offsets:
#	150
#	16331
#	29032
#	57008
#	77642
#	89590
#	111242
#	127775
#	144417
#	158706
#
# Disc length: 2315 seconds
# Revision: 2
# Processed by: cddbd v1.5.2PL0 Copyright (c) Steve Scherf et al.
# Submitted via: dBpowerAMP V12.0
#
DISCID=7909090a
DTITLE=Tim Carter - Bang Bang
DYEAR=2007
DGENRE=Country
TTITLE0=Cracks in the Floor
TTITLE1=I Can't Settle Down
TTITLE2=Chronical
TTITLE3=Where I Belong
TTITLE4=Dogpatch
TTITLE5=I'm King of the Hill
TTITLE6=Vassillie's Lullaby
TTITLE7=The Signs
TTITLE8=Into Carrowkeel
TTITLE9=Second Son
EXTD=
EXTT0=
EXTT1=
EXTT2=
EXTT3=
EXTT4=
EXTT5=
EXTT6=
EXTT7=
EXTT8=
EXTT9=
PLAYORDER=
